<?xml version="1.0" encoding="utf-8"?>
<!-- Generator: Adobe Illustrator 22.0.1, SVG Export Plug-In . SVG Version: 6.00 Build 0)  -->
<svg version="1.1" id="Layer_1" xmlns="http://www.w3.org/2000/svg" xmlns:xlink="http://www.w3.org/1999/xlink" x="0px" y="0px"
	 viewBox="0 0 398.39999 67.8" style="enable-background:new 0 0 398.39999 67.8;" xml:space="preserve">
<style type="text/css">
	.st0{fill:#FF4081;}
	.st1{fill:#FFFFFF;}
</style>
<title>Artboard 2</title>
<g>
	<path class="st0" d="M13.9,36.3V10.1H6.1v26.3c-5,2.2-7.4,8-5.2,13s8,7.4,13,5.2s7.4-8,5.2-13C18.1,39.2,16.2,37.3,13.9,36.3
		L13.9,36.3z"/>
	<path class="st0" d="M55.3,10.1c0-5.5-4.5-9.9-9.9-9.9c-5.5,0-9.9,4.5-9.9,9.9c0,4,2.4,7.6,6,9.1v27.1h7.8V19.2
		C52.9,17.6,55.3,14,55.3,10.1z"/>
	<path class="st1" d="M45.4,35.5c-1.4,0-2.8,0.3-4.2,0.9l-22-22.6c2.1-5.1-0.3-11-5.3-13.1S2.9,1,0.8,6.1s0.3,11,5.3,13.1
		c2.4,1,5.1,1,7.5,0.1L36,42.2c-1.8,5.2,1,10.8,6.2,12.6c5.2,1.8,10.8-1,12.6-6.2s-1-10.8-6.2-12.6C47.6,35.7,46.5,35.5,45.4,35.5
		L45.4,35.5z"/>
	<path class="st1" d="M123.2,2.3v51.6H115L89.4,21.1v32.7H78.7V2.3H87L112.4,35V2.3H123.2z"/>
	<path class="st1" d="M165,38.4h-27.60001c1.2,4.8,5.10001,7.3,10.2,7.3c4.8,0,6.60001-1.1,9.39999-2.6l5.8,5.7
		c-3.39999,3.5-8,5.8-15.5,5.8c-9.5,0-20.3-6.5-20.3-19.7c0-13.4,11-20,19.60001-20S167.3,21.5,165,38.4z M137.5,31h18.3
		c-1.3-5-6.39999-8.1-11.5-6.8C140.89999,25,138.3,27.6,137.5,31z"/>
	<path class="st1" d="M240.10001,15.3v10.1c-0.8-0.2-1.7-0.2-2.5-0.2c-7.10001-0.1-13,5.4-13.60001,12.4V54h-10.60001V15.6H224v9.6
		c1.7-5.8,6.3-10.2,13.2-10.2C238.2,15,239.10001,15.1,240.10001,15.3z"/>
	<path class="st1" d="M398.39999,15.3v10.1c-0.79999-0.2-1.70001-0.2-2.5-0.2c-7.10001-0.1-13,5.4-13.5,12.4V54h-10.5V15.6h10.5v9.6
		c1.70001-5.8,6.29999-10.2,13.20001-10.2C396.5,15,397.39999,15.1,398.39999,15.3z"/>
	<path class="st1" d="M265.79999,15c-3.89999,0-7.60001,1.2-10.7,3.5v-2.9h-10.5v52.3h10.5V51.1c3.09999,2.3,6.90001,3.5,10.7,3.5
		c10.39999,0,18.79999-8.9,18.79999-19.8S276.20001,15,265.79999,15z M265.10001,45.3c-5.70001-0.2-10.10001-4.9-10-10.6
		c-0.2-5.5,4-10.2,9.60001-10.5c5.5-0.2,10.20001,4,10.5,9.6c0,0.3,0,0.6,0,0.9C275.39999,40.4,270.89999,45.2,265.10001,45.3
		C265.20001,45.3,265.20001,45.3,265.10001,45.3z"/>
	<path class="st1" d="M198.10001,15.6v2.9c-3.10001-2.3-6.89999-3.5-10.7-3.5c-10.39999,0-18.8,8.9-18.8,19.8
		s8.39999,19.8,18.8,19.8c3.8,0,7.60001-1.2,10.7-3.5V54h10.5V15.6H198.10001z M188.10001,45.3c-5.7-0.2-10.10001-4.9-10-10.6
		c-0.2-5.5,4-10.2,9.60001-10.5c5.5-0.2,10.2,4,10.5,9.6c0,0.3,0,0.6,0,0.9C198.3,40.5,193.8,45.2,188.10001,45.3L188.10001,45.3z"
		/>
	<path class="st1" d="M307.39999,14.9c-8.60001,0-19.60001,6.5-19.60001,20c0,13.2,10.79999,19.7,20.29999,19.7
		c7.5,0,12.10001-2.4,15.5-5.8l-5.79999-5.7c-2.70001,1.5-4.60001,2.6-9.39999,2.6c-5.10001,0-9-2.5-10.20001-7.3h27.60001
		C328.20001,21.5,316.10001,14.9,307.39999,14.9z M298.29999,31c1.29999-5,6.39999-8.1,11.5-6.8
		c3.29999,0.9,5.89999,3.5,6.79999,6.8H298.29999z"/>
	<path class="st1" d="M349.20001,14.9c-8.60001,0-19.60001,6.5-19.60001,20c0,13.2,10.79999,19.7,20.29999,19.7
		c7.5,0,12.10001-2.4,15.5-5.8l-5.79999-5.7c-2.70001,1.5-4.60001,2.6-9.39999,2.6c-5.10001,0-9-2.5-10.20001-7.3h27.60001
		C370,21.5,357.89999,14.9,349.20001,14.9z M340.20001,31c1.29999-5,6.39999-8.1,11.5-6.8C355,25.1,357.60001,27.7,358.5,31
		H340.20001z"/>
</g>
<g>
	<path class="st1" d="M390.71729,54c-0.57303,0-1.10889-0.10579-1.60715-0.31813c-0.49869-0.21158-0.93027-0.50403-1.29553-0.87698
		c-0.3649-0.37256-0.65353-0.80836-0.86548-1.30703c-0.21158-0.49828-0.31775-1.03413-0.31775-1.60715
		c0-0.57302,0.10617-1.10887,0.31775-1.60715c0.21194-0.49866,0.50058-0.93217,0.86548-1.30128
		c0.36526-0.36911,0.79684-0.66118,1.29553-0.87736c0.49826-0.21541,1.03796-0.3235,1.61902-0.3235
		c0.57263,0,1.10657,0.10809,1.60141,0.3235c0.49445,0.21618,0.9241,0.50825,1.289,0.87736
		c0.3653,0.36911,0.65353,0.80262,0.86548,1.30128c0.21198,0.49828,0.31815,1.03413,0.31815,1.60715
		c0,0.57302-0.10617,1.10887-0.31815,1.60715c-0.21194,0.49866-0.50018,0.93447-0.86548,1.30703
		c-0.3649,0.37295-0.79684,0.6654-1.29514,0.87698C391.82578,53.89421,391.29031,54,390.71729,54z M390.71729,53.21118
		c0.46301,0,0.89078-0.08432,1.28326-0.25297c0.39249-0.16903,0.73209-0.40246,1.0188-0.70066
		c0.28632-0.2982,0.51016-0.64968,0.67114-1.05406c0.16058-0.40399,0.24109-0.83788,0.24109-1.3009
		c0-0.46302-0.08051-0.8969-0.24109-1.30128c-0.16098-0.40437-0.38483-0.75547-0.67114-1.05367
		c-0.28671-0.2982-0.62631-0.53393-1.0188-0.70679c-0.39249-0.17248-0.81641-0.25911-1.27139-0.25911
		c-0.46341,0-0.89114,0.08662-1.28363,0.25911c-0.39252,0.17287-0.73401,0.40859-1.02457,0.70679
		c-0.29013,0.2982-0.5159,0.6493-0.67688,1.05367c-0.16098,0.40438-0.24149,0.83826-0.24149,1.30128
		c0,0.46302,0.08051,0.89691,0.24149,1.3009c0.16098,0.40437,0.38443,0.75586,0.67114,1.05406
		c0.28632,0.2982,0.62592,0.53163,1.0184,0.70066C389.82611,53.12686,390.25388,53.21118,390.71729,53.21118z M389.29257,47.79448
		h1.60141c0.25909,0,0.48065,0.03756,0.66501,0.11192c0.18436,0.07513,0.33768,0.17095,0.4592,0.28862
		c0.12189,0.11767,0.21002,0.24953,0.26523,0.39441c0.05481,0.14565,0.0824,0.28862,0.0824,0.43006
		c0,0.26677-0.06708,0.50825-0.20044,0.72404c-0.13339,0.21579-0.33731,0.37869-0.61212,0.4887l1.01266,1.71907h-0.89502
		l-0.93024-1.61329h-0.65927v1.61329h-0.78882V47.79448z M390.8587,49.71401c0.24301,0,0.41971-0.05903,0.52972-0.1767
		c0.10962-0.11767,0.16483-0.27482,0.16483-0.47107c0-0.20391-0.05905-0.35723-0.1767-0.45919
		c-0.11768-0.10196-0.30627-0.15293-0.56497-0.15293h-0.73019v1.25988H390.8587z"/>
</g>
</svg>
