<?xml version="1.0" encoding="UTF-8"?>
<svg width="33px" height="52px" viewBox="0 0 33 52" version="1.1" xmlns="http://www.w3.org/2000/svg" xmlns:xlink="http://www.w3.org/1999/xlink">
    <!-- Generator: Sketch 63.1 (92452) - https://sketch.com -->
    <title>cellphone-android</title>
    <desc>Created with Sketch.</desc>
    <g id="Page-1" stroke="none" stroke-width="1" fill="none" fill-rule="evenodd">
        <g id="Home" transform="translate(-1010.000000, -535.000000)">
            <g id="cellphone-android" transform="translate(1010.000000, 534.960533)">
                <g id="Group" transform="translate(0.000000, 0.993750)">
                    <path d="M28.4046875,39.41875 L4.0578125,39.41875 L4.0578125,6.95625 L28.4046875,6.95625 M20.86875,46.375 L11.59375,46.375 L11.59375,44.05625 L20.86875,44.05625 M25.50625,0 L6.95625,0 C3.11441921,0 0,3.11441921 0,6.95625 L0,44.05625 C0,47.8980808 3.11441921,51.0125 6.95625,51.0125 L25.50625,51.0125 C29.3480808,51.0125 32.4625,47.8980808 32.4625,44.05625 L32.4625,6.95625 C32.4625,3.11441921 29.3480808,0 25.50625,0 Z" id="Shape" fill="#FF4081" fill-rule="nonzero"></path>
                    <path d="M8.70970051,16.4837088 C9.32291649,14.99447 11.0749621,14.2936517 12.5350002,14.9068677 C13.9950382,15.5200837 14.6958565,17.2429286 14.0826405,18.7321674 L14.0826405,18.7321674 L20.5068079,25.3315393 C20.5358418,25.3190962 20.5648757,25.307095 20.5939096,25.2955356 L20.594381,20.3090377 C19.5431536,19.8710262 18.8423353,18.8197989 18.8423353,17.6517684 C18.8423353,16.0749273 20.1271688,14.7608931 21.7332106,14.7608931 C23.3100517,14.7608931 24.624086,16.0457266 24.624086,17.6517684 C24.624086,18.7905981 23.9232677,19.8418255 22.8720403,20.3090377 L22.8720403,20.3090377 L22.8722123,25.2939868 C24.2583143,25.8901822 24.9796054,27.4452717 24.4781114,28.8940321 C23.9524977,30.4124717 22.3172551,31.230093 20.7988155,30.7044793 C19.2803759,30.1788656 18.4627546,28.543623 18.9883683,27.0251835 L18.9883683,27.0251835 L12.5344479,20.4280484 L12.5350002,25.3022802 C13.1455615,25.5677416 13.6595915,26.0503988 13.9673951,26.6624959 L14.0534397,26.8499205 C14.6958565,28.3099585 13.9950382,30.0038947 12.5350002,30.6460194 C11.0749621,31.2884361 9.38131801,30.5879099 8.73890127,29.1278718 C8.09648453,27.6678338 8.79730279,25.9738977 10.2573408,25.3317729 L10.2573408,25.3317729 L10.2573408,20.3090085 C8.79730279,19.6957925 8.09648453,17.9729476 8.70970051,16.4837088 Z" id="Combined-Shape" fill="#FFFFFF"></path>
                </g>
            </g>
        </g>
    </g>
</svg>