<svg id="account-switch-outline" xmlns="http://www.w3.org/2000/svg" width="51.818" height="57" viewBox="0 0 51.818 57">
  <path id="Shape" d="M33.682,51.818H18.137V57l-7.773-7.772,7.773-7.772v5.181H33.682V41.455l7.773,7.772L33.682,57Zm2.591-15.546V31.09a15.066,15.066,0,0,0-2.98-8.291,13.671,13.671,0,0,0-1.554-1.71,29.265,29.265,0,0,1,4.534-.363c15.546,0,15.546,10.363,15.546,10.363v5.182ZM0,36.273V31.09S0,20.727,15.546,20.727,31.09,31.09,31.09,31.09v5.182Zm28.5-28.5a7.772,7.772,0,1,1,7.772,7.773A7.762,7.762,0,0,1,28.5,7.772Zm-20.728,0a7.773,7.773,0,1,1,7.773,7.773A7.763,7.763,0,0,1,7.772,7.772Z" fill="#ff4081"/>
</svg>
