<?xml version="1.0" encoding="UTF-8"?>
<svg width="46px" height="45px" viewBox="0 0 46 45" version="1.1" xmlns="http://www.w3.org/2000/svg" xmlns:xlink="http://www.w3.org/1999/xlink">
    <!-- Generator: Sketch 63.1 (92452) - https://sketch.com -->
    <title>Group 3</title>
    <desc>Created with Sketch.</desc>
    <defs>
        <polygon id="path-1" points="0.00096174259 0.00130813953 44.7200581 0.00130813953 44.7200581 44.7213663 0.00096174259 44.7213663"></polygon>
    </defs>
    <g id="Page-1" stroke="none" stroke-width="1" fill="none" fill-rule="evenodd">
        <g id="Home" transform="translate(-727.000000, -2139.000000)">
            <g id="Group-3" transform="translate(727.500000, 2139.000000)">
                <mask id="mask-2" fill="white">
                    <use xlink:href="#path-1"></use>
                </mask>
                <g id="Clip-2"></g>
                <path d="M39.0011337,39.0011337 C40.963343,37.0650872 39.6552035,32.2772965 36.0447384,26.7046221 C34.6842733,28.3528779 33.219157,30.0011337 31.6232267,31.6232267 C30.0011337,33.219157 28.3528779,34.6842733 26.7046221,36.0447384 C32.2772965,39.6552035 37.0650872,40.963343 39.0011337,39.0011337 M16.8150872,27.9081105 C18.6464826,29.7395058 20.5275872,31.4139244 22.3615988,32.9052035 C24.1929942,31.4139244 26.0767151,29.7395058 27.9081105,27.9081105 C29.7395058,26.0767151 31.4139244,24.1929942 32.9052035,22.3615988 C31.4139244,20.5275872 29.7395058,18.6464826 27.9081105,16.8150872 C26.0767151,14.9836919 24.1929942,13.3092733 22.3615988,11.8179942 C20.5275872,13.3092733 18.6464826,14.9836919 16.8150872,16.8150872 C14.9836919,18.6464826 13.3092733,20.5275872 11.8179942,22.3615988 C13.3092733,24.1929942 14.9836919,26.0767151 16.8150872,27.9081105 M5.72206395,5.72206395 C3.75985465,7.65811047 5.06799419,12.4459012 8.6784593,18.0159593 C10.0389244,16.3703198 11.5040407,14.722064 13.0999709,13.0999709 C14.722064,11.5040407 16.3703198,10.0389244 18.0159593,8.6784593 C12.4459012,5.06799419 7.65811047,3.75985465 5.72206395,5.72206395 M13.0999709,31.6232267 C11.5040407,30.0011337 10.0389244,28.3528779 8.6784593,26.7046221 C5.06799419,32.2772965 3.75985465,37.0650872 5.72206395,39.0011337 C7.65811047,40.963343 12.4459012,39.6552035 18.0159593,36.0447384 C16.3703198,34.6842733 14.722064,33.219157 13.0999709,31.6232267 M31.6232267,13.0999709 C33.219157,14.722064 34.6842733,16.3703198 36.0447384,18.0159593 C39.6552035,12.4459012 40.963343,7.65811047 39.0011337,5.72206395 C37.0650872,3.75985465 32.2772965,5.06799419 26.7046221,8.6784593 C28.3528779,10.0389244 30.0011337,11.5040407 31.6232267,13.0999709 M2.00694767,2.00694767 C5.74822674,-1.7343314 13.8586919,-0.0599127907 22.3615988,5.51276163 C30.8645058,-0.0599127907 38.9723547,-1.7343314 42.71625,2.00694767 C46.4575291,5.74822674 44.7831105,13.8586919 39.210436,22.3615988 C44.7831105,30.8645058 46.4575291,38.9723547 42.71625,42.71625 C38.9723547,46.4575291 30.8645058,44.7831105 22.3615988,39.210436 C13.8586919,44.7831105 5.74822674,46.4575291 2.00694767,42.71625 C-1.7343314,38.9723547 -0.0599127907,30.8645058 5.51276163,22.3615988 C-0.0599127907,13.8586919 -1.7343314,5.74822674 2.00694767,2.00694767 M22.3615988,19.7453198 C23.8057849,19.7453198 24.9778779,20.9147965 24.9778779,22.3615988 C24.9778779,23.8057849 23.8057849,24.9778779 22.3615988,24.9778779 C20.9147965,24.9778779 19.7453198,23.8057849 19.7453198,22.3615988 C19.7453198,20.9147965 20.9147965,19.7453198 22.3615988,19.7453198" id="Fill-1" fill="#FF4081" mask="url(#mask-2)"></path>
            </g>
        </g>
    </g>
</svg>