<?xml version="1.0" encoding="UTF-8"?>
<svg width="54px" height="54px" viewBox="0 0 54 54" version="1.1" xmlns="http://www.w3.org/2000/svg" xmlns:xlink="http://www.w3.org/1999/xlink">
    <!-- Generator: Sketch 63.1 (92452) - https://sketch.com -->
    <title>Group 17</title>
    <desc>Created with Sketch.</desc>
    <g id="Page-1" stroke="none" stroke-width="1" fill="none" fill-rule="evenodd">
        <g id="Home" transform="translate(-501.000000, -1675.000000)">
            <g id="Group-17" transform="translate(501.332238, 1675.407563)">
                <g id="Group-6" transform="translate(9.418162, 10.760735)" fill="#4611A9">
                    <path d="M25,27.4567354 L9.5,27.4567354 C9.5,23.070201 12.9697578,19.5142778 17.25,19.5142778 C21.5302422,19.5142778 25,23.070201 25,27.4567354" id="Fill-1"></path>
                    <path d="M9.5,16.1910335 L9.5,16.1910335 C8.11949556,16.1910335 7,15.04947 7,13.6417524 L7,10.1116541 C7,8.70340944 8.11949556,7.5623729 9.5,7.5623729 C10.8805044,7.5623729 12,8.70340944 12,10.1116541 L12,13.6417524 C12,15.04947 10.8805044,16.1910335 9.5,16.1910335" id="Fill-3"></path>
                    <path d="M25.25,16.1910335 L25.25,16.1910335 C23.7308766,16.1910335 22.5,15.04947 22.5,13.6417524 L22.5,10.1116541 C22.5,8.70340944 23.7308766,7.5623729 25.25,7.5623729 C26.7685549,7.5623729 28,8.70340944 28,10.1116541 L28,13.6417524 C28,15.04947 26.7685549,16.1910335 25.25,16.1910335" id="Fill-5"></path>
                    <path d="M8.21918861,0.235171232 C9.11963755,-0.262264545 10.2580111,0.0552123641 10.7618172,0.944275756 C11.2656233,1.83333915 10.9440807,2.9573188 10.0436317,3.45475458 C6.83140948,5.22928525 4.78133488,7.74827217 3.56413335,10.34462 C3.13070627,11.2691402 2.02027455,11.6716926 1.08391468,11.2437459 C0.147554816,10.8157993 -0.260152763,9.71940816 0.173274319,8.79488791 C1.69338892,5.55241232 4.22509333,2.44163269 8.21918861,0.235171232 Z" id="Stroke-7" fill-rule="nonzero"></path>
                    <path d="M23.2381251,0.944357304 C23.7418611,0.0552687147 24.8801632,-0.262265131 25.7805939,0.235125608 C29.7749528,2.44157747 32.3066513,5.55232281 33.8267341,8.79488791 C34.2601401,9.71940816 33.8524523,10.8157993 32.9161379,11.2437459 C31.9798235,11.6716926 30.8694457,11.2691402 30.4360396,10.34462 C29.2188815,7.74823878 27.168854,5.22933154 23.9564045,3.4548002 C23.0559738,2.95740946 22.7343891,1.83344589 23.2381251,0.944357304 Z" id="Stroke-9" fill-rule="nonzero"></path>
                </g>
                <path d="M26.4181618,2.27373675e-13 C40.9859204,2.27373675e-13 52.8363236,11.8879889 52.8363236,26.499695 C52.8363236,41.1123161 40.9862245,53 26.4181618,53 C11.8500991,53 -1.42108547e-14,41.1123161 -1.42108547e-14,26.499695 C-1.42108547e-14,11.8879889 11.8504032,2.27373675e-13 26.4181618,2.27373675e-13 Z M26.4181618,4.60696019 C14.3862405,4.60696019 4.59582105,14.4284318 4.59582105,26.4997365 C4.59582105,38.5718318 14.3859778,48.3930398 26.4181618,48.3930398 C38.4503458,48.3930398 48.2405026,38.5718318 48.2405026,26.4997365 C48.2405026,14.4284318 38.4500831,4.60696019 26.4181618,4.60696019 Z" id="Combined-Shape" fill="#4E00AF" fill-rule="nonzero"></path>
            </g>
        </g>
    </g>
</svg>