<?xml version="1.0" encoding="utf-8"?>
<!-- Generator: Adobe Illustrator 23.0.6, SVG Export Plug-In . SVG Version: 6.00 Build 0)  -->
<svg version="1.1" id="Layer_1" xmlns="http://www.w3.org/2000/svg" xmlns:xlink="http://www.w3.org/1999/xlink" x="0px" y="0px"
	 viewBox="0 0 541 117" style="enable-background:new 0 0 541 117;" xml:space="preserve">
<style type="text/css">
	.st0{fill:#1C5DC6;}
</style>
<g>
	<g>
		<path class="st0" d="M209.4,60.8c-2.9,2.7-5.1,4.2-6.6,6.2c-7.5,9.9-10.9,10.2-19.3,1.5c-0.6-0.6-1.3-1.2-1.5-1.4
			c-4.8,3.1-9.2,8.1-14,8.6c-7.6,0.7-5.8-8.2-9-13.1c-5.7,7-11,14.1-17,20.5c-2,2.1-6.1,2.1-9.3,3.1c0.3-2.6,0.7-5.1,1-7.7
			c0.9-6.3,1.7-12.5,2.6-18.8c-0.6-0.1-1.1-0.1-1.7-0.2c-4.4,6-8.4,12.4-13.5,17.7c-2.6,2.7-7.5,5.1-11,4.6c-5.1-0.7-6.1-6-6.1-10.9
			c0-8.5,0-17,0-25.9c-2,3.6-6.4,7.7-6.3,11.8c0.3,19.6-10.6,31.9-25.4,41.7c-5.4,3.6-11.8,6-18.1,7.9c-2.7,0.8-6.1-1-9.2-1.7
			c0.8-3,0.6-6.9,2.5-9c8.7-9.7,17.9-18.8,26.9-28.2c2.5-2.6,4.6-5.7,7.4-8c5.3-4.3,4-8.3,0.2-12.7c-8.9-10.5-20.9-14.6-35.3-18.3
			c1.5,7.8,2.4,14.4,4,20.9c1.7,6.8,4,13.5,5.9,20.3c0.5,1.9,1.2,4.3,0.6,6c-0.7,2-2.5,4.3-4.4,5c-1,0.4-4.2-2-4.7-3.6
			c-3.5-13.4-7-26.8-9.6-40.4c-1.7-9-2.2-10.2-11.4-11.1c-3.6-0.4-7.3-0.6-10.8-1.3c-1.7-0.4-3-2-4.6-3c1.6-1,3.2-3,4.8-3
			c7.3-0.1,14.7-0.5,21.8,0.7c13.2,2.3,26.7,4.1,38.1,12c6.1,4.2,11.5,9.4,18,14.7c3.1-2.7,6.6-6.3,10.7-9c2.4-1.6,6.4-3.1,8.6-2.1
			c1.8,0.8,2.8,5.3,2.7,8.1c-0.4,7.9-1.8,15.8-2.5,23.7c-0.2,2.1,0.3,4.3,0.4,6.5c0.7,0.3,1.4,0.6,2,0.8c3.5-5.3,7.2-10.6,10.6-16
			c2.5-4,4.5-8.5,7.2-12.4c1.3-1.8,4.6-4.2,5.6-3.7c2.3,1.2,4.8,3.8,5.3,6.2c0.9,5.1,0.4,10.4,0.6,15.7c0,0.8,0.4,1.6,0.9,3.8
			c7.1-8.1,13.1-15.4,13.9-27.3c-3.3,1.3-5.4,2.4-7.6,2.9c-1.7,0.3-3.6-0.3-5.4-0.5c0.7-1.9,1.1-4,2.2-5.7c0.6-1,2.3-1.7,3.6-1.9
			c8.5-1.1,9.2-7.3,9.9-13.9c0.4-3.8,1-7.7,2.5-11.2c0.6-1.4,3.6-1.8,5.5-2.7c0.7,1.7,1.9,3.3,2.1,5.1c0.3,2-0.4,4.1-0.4,6.1
			c-0.2,8.6,1.4,9.7,9.5,6.2c9.6-4.1,19.3-8.2,28.9-12.3c8.2-3.5,13.1-1,13.2,8c0.1,7.7-1.3,15.4-1.7,23.1c-0.2,3.1,0.5,6.3,0.8,9.5
			c0.8,0.2,1.6,0.3,2.5,0.5c3.5-6.7,6.6-13.6,10.5-19.9C241.4,25,247,17,253,9.5c1.7-2.1,6.7-3.6,8.8-2.6c2.1,1.1,3.9,5.8,3.5,8.6
			c-1.7,11.4-4.3,22.6-6.7,34.5c6.5-5.6,12.7-11.6,19.6-16.7c7.3-5.3,15.1-10.1,23.1-14.3c2.5-1.3,7.7-1.2,9.2,0.5
			c1.9,2.2,2.5,7,1.4,9.9c-2.1,5.7-5.7,10.8-8.7,16.2c-1,1.9-2,3.7-1.9,6.5c9.9-5.3,19.8-10.7,29.8-16c2-1.1,4.1-2,6.2-2.7
			c3.6-1.1,6.7-0.2,7.2,3.8c0.6,5.1,3.5,6.4,8,6.2c21.4-1.1,42.7-1.9,64-3.4c26.1-1.8,52.1-4.2,78.2-6.2c8.4-0.6,16.8-1.1,25.2-1.2
			c1.9,0,3.8,2.1,5.8,3.3c-1.9,1.1-3.8,3.1-5.8,3.3c-43.5,3.4-87.1,6.7-130.6,9.7c-14.1,1-28.2,1.3-42.3,1.1
			c-3.8-0.1-7.5-3.2-11.4-4.6c-2-0.7-4.8-1.5-6.3-0.6c-11,6.4-21.8,13.2-32.6,19.8c-1.4,0.8-2.7,2.3-4.1,2.4c-2.7,0.2-6.2,0.4-8-1.1
			c-1.2-1-1-5.3,0.1-7.4c3.4-6.5,7.5-12.5,11.2-18.8c2.1-3.6,3.9-7.4,6.7-13c-3.7,1.3-5.5,1.5-6.9,2.4
			c-19.9,13.1-37.7,28.5-50.1,49.3c-1.7,2.9-3.2,7-7.6,4.6c-4.1-2.2-2.3-5.5-0.8-8.9c7.7-17.2,14.9-34.7,17.6-53.6
			c0.1-0.8,0-1.7-1.6-3.3c-5.6,10-11.3,19.9-16.8,30c-6.3,11.6-12.1,23.4-18.5,35c-1.1,1.9-3.9,3-5.9,4.4c-1.4-2.6-3.9-5.1-3.9-7.7
			c-0.1-4.4,1.4-8.9,2.1-13.4C210.6,64.6,210.1,63.7,209.4,60.8z M170.5,63.6c0.6,0.2,1.3,0.5,1.9,0.7c1.7-2.8,3.2-5.8,5.3-8.2
			c1.5-1.7,4-3.8,5.8-3.6c1.8,0.2,3.7,2.8,5,4.8c1.7,2.7,2.9,5.7,4.4,8.7c5.1-4.1,8.7-8.2,13.2-10.3c4.4-2.1,6.3-4.5,6.1-9.2
			c-0.1-2.7,0.5-5.4,0.8-8.1c0.5-6,1-12,1.5-18.3c-1.8,0-2.8-0.3-3.5,0c-12.2,4.9-24.5,9.8-36.6,15c-1.6,0.7-3.5,2.9-3.6,4.5
			C170.3,47.5,170.5,55.5,170.5,63.6z M87.4,66.6c-0.5-0.5-1.1-0.9-1.6-1.4C76,75.6,66.2,86,56.4,96.5
			C71.2,90.9,82.2,81.5,87.4,66.6z"/>
	</g>
</g>
</svg>
