<?xml version="1.0" encoding="UTF-8"?>
<svg width="54px" height="54px" viewBox="0 0 54 54" version="1.1" xmlns="http://www.w3.org/2000/svg" xmlns:xlink="http://www.w3.org/1999/xlink">
    <!-- Generator: Sketch 63.1 (92452) - https://sketch.com -->
    <title>Group 13</title>
    <desc>Created with Sketch.</desc>
    <g id="Page-1" stroke="none" stroke-width="1" fill="none" fill-rule="evenodd">
        <g id="Home" transform="translate(-574.000000, -1675.000000)">
            <g id="Group-13" transform="translate(574.332238, 1675.407563)">
                <path d="M39.9181618,28.7938267 L39.9181618,29.2938267 C39.9181618,31.1084379 39.5547552,32.8738496 38.8579674,34.516119 C37.7087655,37.2401077 35.6792835,39.5218872 33.1002555,41.0048826 C31.0169847,42.2139088 28.6419458,42.8590904 26.1681618,42.8590904 C23.6897709,42.8590904 21.3145903,42.2142548 19.2320474,41.0056484 C16.6589656,39.5228651 14.6285318,37.2369634 13.478753,34.5170567 C12.8396671,33.0107835 12.4810475,31.4018246 12.4257156,29.7464122 L12.4181618,29.2938267 L12.4181618,28.7938267 L39.9181618,28.7938267 Z M26.4181618,37.642156 C24.7747352,37.642156 23.2355482,38.0925758 21.9188978,38.8758613 C23.2491921,39.4517481 24.6960136,39.7509397 26.1681618,39.7509397 C27.7421793,39.7509397 29.2891295,39.4075389 30.6937188,38.7514954 C29.4282965,38.0441187 27.970672,37.642156 26.4181618,37.642156 Z M36.4437618,31.9014372 L15.8907618,31.9014372 L15.9496925,32.1208258 C16.0267689,32.3902435 16.1151178,32.656943 16.2146767,32.9206541 L16.3724148,33.3139455 C16.4409825,33.4762293 16.5137584,33.636651 16.5906056,33.7950557 L35.7460523,33.7952425 C35.8223342,33.637744 35.8945654,33.4782491 35.9626131,33.3169082 C36.1291844,32.9244017 36.270434,32.5255562 36.3861381,32.121079 L36.4437618,31.9014372 Z" id="Combined-Shape" fill="#4611A9" fill-rule="nonzero"></path>
                <g id="Group-8" transform="translate(15.418162, 17.466943)" fill="#4611A9">
                    <path d="M2.795,8.62866065 L2.795,8.62866065 C1.25101819,8.62866065 0,7.48709706 0,6.07937946 L0,2.54928118 C0,1.14103654 1.25101819,2.53982528e-13 2.795,2.53982528e-13 C4.33898181,2.53982528e-13 5.59,1.14103654 5.59,2.54928118 L5.59,6.07937946 C5.59,7.48709706 4.33898181,8.62866065 2.795,8.62866065" id="Fill-16"></path>
                    <path d="M18.705,8.62866065 L18.705,8.62866065 C17.1610182,8.62866065 15.91,7.48709706 15.91,6.07937946 L15.91,2.54928118 C15.91,1.14103654 17.1610182,2.53982528e-13 18.705,2.53982528e-13 C20.2489818,2.53982528e-13 21.5,1.14103654 21.5,2.54928118 L21.5,6.07937946 C21.5,7.48709706 20.2489818,8.62866065 18.705,8.62866065" id="Fill-18"></path>
                </g>
                <path d="M26.4181618,2.27373675e-13 C40.9859204,2.27373675e-13 52.8363236,11.8879889 52.8363236,26.499695 C52.8363236,41.1123161 40.9862245,53 26.4181618,53 C11.8500991,53 -1.42108547e-14,41.1123161 -1.42108547e-14,26.499695 C-1.42108547e-14,11.8879889 11.8504032,2.27373675e-13 26.4181618,2.27373675e-13 Z M26.4181618,4.60696019 C14.3862405,4.60696019 4.59582105,14.4284318 4.59582105,26.4997365 C4.59582105,38.5718318 14.3859778,48.3930398 26.4181618,48.3930398 C38.4503458,48.3930398 48.2405026,38.5718318 48.2405026,26.4997365 C48.2405026,14.4284318 38.4500831,4.60696019 26.4181618,4.60696019 Z" id="Combined-Shape-Copy" fill="#4E00AF" fill-rule="nonzero"></path>
            </g>
        </g>
    </g>
</svg>