<?xml version="1.0" encoding="utf-8"?>
<!-- Generator: Adobe Illustrator 22.0.1, SVG Export Plug-In . SVG Version: 6.00 Build 0)  -->
<svg version="1.1" id="Layer_1" xmlns="http://www.w3.org/2000/svg" xmlns:xlink="http://www.w3.org/1999/xlink" x="0px" y="0px"
	 viewBox="0 0 191.60001 137.5" style="enable-background:new 0 0 191.60001 137.5;" xml:space="preserve">
<style type="text/css">
	.st0{fill:#FFFFFF;}
	.st1{fill:#FF4081;}
</style>
<title>Artboard 3</title>
<g>
	<path class="st0" d="M26.7,98.2v30.89999h-4.9L6.4,109.5v19.60001H0V98.2h5l15.2,19.6V98.2H26.7z"/>
	<path class="st0" d="M51.7,119.8H35.2c0.8,2.9,3.1,4.4,6.1,4.4c2,0.1,3.9-0.5,5.6-1.5l3.5,3.4c-2,2.10001-4.8,3.5-9.3,3.5
		c-5.7,0-12.2-3.9-12.2-11.8c-0.1-6.5,5-11.9,11.5-12c0.1,0,0.2,0,0.3,0C45.9,105.7,53.1,109.6,51.7,119.8z M35.2,115.3h10.9
		c-0.8-3-3.8-4.9-6.9-4.1C37.3,111.8,35.7,113.3,35.2,115.3z"/>
	<path class="st0" d="M96.7,105.9v6c-0.5-0.1-1-0.1-1.5-0.1c-4.3-0.1-7.8,3.2-8.1,7.5v9.8h-6.3v-23h6.3v5.7c0.9-3.6,4.2-6.1,7.9-6
		C95.6,105.8,96.1,105.8,96.7,105.9z"/>
	<path class="st0" d="M191.60001,105.9v6c-0.5-0.1-1-0.1-1.5-0.1c-4.3-0.1-7.8,3.2-8.10001,7.5v9.8h-6.3v-23h6.3v5.7
		c0.89999-3.6,4.2-6.2,7.89999-6.1C190.5,105.7,191.10001,105.8,191.60001,105.9z"/>
	<path class="st0" d="M112.2,105.8c-2.3,0-4.6,0.7-6.4,2.1v-1.8h-6.3v31.3h6.3v-10c1.9,1.39999,4.1,2.10001,6.4,2.10001
		c6.2,0,11.3-5.3,11.3-11.9S118.4,105.8,112.2,105.8z M111.8,123.9c-3.5,0.2-6.5-2.5-6.7-6s2.5-6.5,6-6.7s6.5,2.5,6.7,6
		c0,0.1,0,0.2,0,0.3C117.8,121,115.2,123.8,111.8,123.9z"/>
	<path class="st0" d="M71.6,106.1v1.7c-1.9-1.4-4.1-2.1-6.4-2.1c-6.2,0-11.3,5.3-11.3,11.9s5,11.9,11.3,11.9c2.3,0,4.6-0.7,6.4-2.1
		v1.7h6.3v-23L71.6,106.1z M65.6,124c-3.5,0.2-6.5-2.5-6.7-6s2.5-6.5,6-6.7c3.5-0.2,6.5,2.5,6.7,6c0,0.1,0,0.2,0,0.3
		C71.7,121,69,123.9,65.6,124L65.6,124z"/>
	<path class="st0" d="M137.10001,105.7c-6.5,0-11.7,5.3-11.7,11.7c0,0.1,0,0.2,0,0.3c0,7.9,6.5,11.8,12.2,11.8
		c4.5,0,7.3-1.39999,9.3-3.5l-3.5-3.4c-1.7,1.1-3.60001,1.6-5.60001,1.5c-3,0-5.39999-1.5-6.10001-4.4H148.3
		C149.5,109.6,142.3,105.7,137.10001,105.7z M131.7,115.3c0.8-3,3.8-4.9,6.89999-4.1c2,0.5,3.60001,2.1,4.10001,4.1H131.7z"/>
	<path class="st0" d="M162.10001,105.7c-6.5,0-11.7,5.3-11.7,11.7c0,0.1,0,0.2,0,0.3c0,7.9,6.5,11.8,12.2,11.8
		c4.5,0,7.3-1.39999,9.3-3.5l-3.5-3.4c-1.7,1.1-3.60001,1.6-5.60001,1.5c-3,0-5.39999-1.5-6.10001-4.4H173.3
		C174.60001,109.6,167.39999,105.7,162.10001,105.7z M156.7,115.3c0.8-3,3.8-4.9,6.89999-4.1c2,0.5,3.60001,2.1,4.10001,4.1H156.7z"
		/>
	<path class="st1" d="M77.5,48.2V13.3H67.1v34.9c-6.7,2.9-9.8,10.6-7,17.3c2.9,6.7,10.6,9.8,17.3,7c6.7-2.9,9.8-10.6,7-17.3
		C83.1,52,80.6,49.5,77.5,48.2L77.5,48.2z"/>
	<path class="st1" d="M132.5,13.3c0-7.3-5.9-13.2-13.2-13.2c-7.3,0-13.2,5.9-13.2,13.2c0,5.3,3.2,10.1,8,12.2v36h10.4v-36
		C129.3,23.4,132.5,18.6,132.5,13.3z"/>
	<path class="st0" d="M119.3,47.2c-1.9,0-3.8,0.4-5.5,1.2l-29.3-30c2.8-6.8-0.3-14.5-7.1-17.4S62.9,1.4,60.1,8.1
		c-2.8,6.8,0.3,14.5,7.1,17.4c3.2,1.3,6.7,1.4,9.9,0.1l29.7,30.5c-2.4,6.9,1.3,14.4,8.2,16.8c6.9,2.4,14.39999-1.3,16.8-8.2
		c2.39999-6.9-1.3-14.4-8.2-16.8C122.2,47.4,120.7,47.1,119.3,47.2L119.3,47.2z"/>
	<g>
		<path class="st0" d="M138.05995,73.63198c-0.57303,0-1.10887-0.10579-1.60715-0.31814
			c-0.49867-0.21157-0.93025-0.50403-1.29553-0.87697c-0.3649-0.37257-0.65352-0.80837-0.86548-1.30704
			c-0.21158-0.49828-0.31775-1.03413-0.31775-1.60715s0.10617-1.10886,0.31775-1.60715
			c0.21196-0.49866,0.50058-0.93217,0.86548-1.30128c0.36528-0.36911,0.79686-0.66118,1.29553-0.87736
			c0.49828-0.21541,1.03796-0.3235,1.61903-0.3235c0.57263,0,1.10657,0.10809,1.60139,0.3235
			c0.49445,0.21618,0.92412,0.50825,1.28902,0.87736c0.36528,0.36911,0.65352,0.80262,0.86548,1.30128
			c0.21196,0.49828,0.31813,1.03413,0.31813,1.60715s-0.10617,1.10887-0.31813,1.60715
			c-0.21196,0.49866-0.5002,0.93447-0.86548,1.30704c-0.3649,0.37294-0.79686,0.6654-1.29515,0.87697
			C139.16844,73.52619,138.63298,73.63198,138.05995,73.63198z M138.05995,72.84316c0.46301,0,0.89078-0.08433,1.28326-0.25298
			c0.3925-0.16903,0.73209-0.40246,1.0188-0.70066c0.28632-0.2982,0.51016-0.64968,0.67114-1.05405
			c0.1606-0.40399,0.24109-0.83788,0.24109-1.3009c0-0.46301-0.08049-0.8969-0.24109-1.30128
			c-0.16098-0.40437-0.38483-0.75547-0.67114-1.05367c-0.28671-0.2982-0.6263-0.53393-1.0188-0.70679
			c-0.39249-0.17249-0.81641-0.25911-1.27138-0.25911c-0.46341,0-0.89116,0.08662-1.28366,0.25911
			c-0.39249,0.17287-0.73399,0.40859-1.02454,0.70679c-0.29015,0.2982-0.51591,0.6493-0.6769,1.05367
			s-0.24147,0.83826-0.24147,1.30128c0,0.46302,0.08049,0.89691,0.24147,1.3009c0.16098,0.40437,0.38445,0.75585,0.67114,1.05405
			c0.28632,0.2982,0.62592,0.53163,1.01842,0.70066C137.16879,72.75883,137.59656,72.84316,138.05995,72.84316z M136.63525,67.42646
			h1.60139c0.25911,0,0.48065,0.03756,0.66502,0.11192c0.18436,0.07512,0.33768,0.17094,0.45918,0.28862
			c0.12189,0.11767,0.21004,0.24952,0.26523,0.39441c0.05482,0.14565,0.08241,0.28862,0.08241,0.43005
			c0,0.26677-0.06708,0.50825-0.20045,0.72404c-0.13339,0.2158-0.33731,0.37869-0.61212,0.4887l1.01265,1.71907h-0.89499
			l-0.93025-1.61328h-0.65926v1.61328h-0.78882V67.42646z M138.20139,69.34599c0.24301,0,0.41971-0.05903,0.52971-0.1767
			c0.10963-0.11768,0.16483-0.27483,0.16483-0.47107c0-0.20391-0.05904-0.35723-0.1767-0.45918
			c-0.11768-0.10196-0.30626-0.15294-0.56499-0.15294h-0.73016v1.25989H138.20139z"/>
	</g>
</g>
</svg>
