<svg xmlns="http://www.w3.org/2000/svg" width="32.462" height="51.013" viewBox="0 0 32.462 51.013"><g transform="translate(0 -0.994)"><g transform="translate(0 0.994)"><path d="M6.956,51.013A6.956,6.956,0,0,1,0,44.056V6.956A6.956,6.956,0,0,1,6.956,0h18.55a6.956,6.956,0,0,1,6.956,6.956v37.1a6.956,6.956,0,0,1-6.956,6.957Z" fill="#ff4081"/><path d="M.251,14.443a2.893,2.893,0,0,1,1.519-3.8V5.624A2.932,2.932,0,0,1,4.047.221,2.945,2.945,0,0,1,5.6,4.047l6.424,6.6.087-.036V5.624a2.891,2.891,0,1,1,4.03-2.658,2.941,2.941,0,0,1-1.752,2.658v4.985A2.9,2.9,0,1,1,10.5,12.34l-6.454-6.6v4.875a2.91,2.91,0,0,1,1.518,1.548,2.891,2.891,0,0,1-1.518,3.8,2.8,2.8,0,0,1-1.133.239A2.927,2.927,0,0,1,.251,14.443Z" transform="translate(8.487 14.685)" fill="#fff"/></g></g></svg>